<svg xmlns="http://www.w3.org/2000/svg" width="300" height="450" viewBox="0 0 300 450"><rect width="100%" height="100%" fill="#DDDDDD"/><path fill="#999999" d="M82.85 206.025h4.98v30.37h-2.9q-.67 0-1.12-.22t-.87-.75l-15.86-20.24q.13 1.39.13 2.56v18.65h-4.98v-30.37h2.96q.36 0 .62.04.26.03.46.12.2.1.39.27.19.18.42.48L83 227.265q-.06-.74-.11-1.45-.04-.72-.04-1.33zm20.46 8.49q2.39 0 4.35.77 1.97.78 3.36 2.21 1.4 1.43 2.16 3.49.75 2.05.75 4.59 0 2.57-.75 4.62-.76 2.06-2.16 3.51-1.39 1.45-3.36 2.23-1.96.78-4.35.78-2.42 0-4.39-.78-1.98-.78-3.37-2.23-1.4-1.45-2.17-3.51-.76-2.05-.76-4.62 0-2.54.76-4.59.77-2.06 2.17-3.49 1.39-1.43 3.37-2.21 1.97-.77 4.39-.77m0 18.2q2.68 0 3.98-1.8 1.29-1.81 1.29-5.29 0-3.49-1.29-5.32-1.3-1.82-3.98-1.82-2.73 0-4.05 1.83-1.31 1.84-1.31 5.31 0 3.46 1.31 5.28 1.32 1.81 4.05 1.81m31.29-26.69v30.37h-5.67v-30.37zm11.15 30.37h-5.19v-21.55h3.17q1.01 0 1.32.95l.34 1.59q.57-.63 1.19-1.15.62-.53 1.32-.9.7-.38 1.51-.6t1.78-.22q2.03 0 3.35 1.1 1.31 1.1 1.96 2.93.5-1.07 1.26-1.84.75-.76 1.66-1.25.9-.48 1.92-.71t2.05-.23q1.78 0 3.17.54 1.38.55 2.33 1.6.94 1.05 1.44 2.56.49 1.51.49 3.47v13.71h-5.19v-13.71q0-2.06-.9-3.1t-2.65-1.04q-.79 0-1.48.27-.68.28-1.19.79-.52.51-.81 1.29-.3.78-.3 1.79v13.71h-5.2v-13.71q0-2.17-.87-3.15-.88-.99-2.56-.99-1.13 0-2.11.56-.97.55-1.81 1.52zm41.37-5.57v-3.63q-2.25.11-3.78.39-1.54.28-2.46.72-.92.45-1.32 1.03-.4.59-.4 1.28 0 1.37.81 1.96.8.59 2.11.59 1.59 0 2.76-.58 1.16-.58 2.28-1.76m-10.97-11.31-.92-1.66q3.72-3.41 8.95-3.41 1.89 0 3.38.62t2.52 1.73q1.03 1.1 1.56 2.63.54 1.53.54 3.36v13.61h-2.35q-.74 0-1.14-.22t-.63-.89l-.46-1.56q-.82.74-1.6 1.29-.77.56-1.61.94t-1.8.58q-.95.2-2.11.2-1.36 0-2.52-.37-1.15-.37-1.99-1.1-.84-.74-1.31-1.83-.46-1.09-.46-2.54 0-.82.27-1.63.28-.81.9-1.54.62-.74 1.6-1.39.99-.65 2.43-1.13 1.44-.49 3.35-.79 1.91-.31 4.37-.37v-1.26q0-2.16-.93-3.2-.92-1.04-2.66-1.04-1.26 0-2.09.29-.83.3-1.46.67-.63.36-1.15.66-.51.29-1.14.29-.55 0-.93-.28-.37-.29-.61-.66m28.77 5.58q.97 0 1.68-.26.72-.26 1.19-.73.47-.46.72-1.11.24-.65.24-1.43 0-1.59-.96-2.53-.95-.93-2.87-.93-1.91 0-2.86.93-.96.94-.96 2.53 0 .76.24 1.41.25.65.72 1.12.47.48 1.2.74.72.26 1.66.26m5.86 12.27q0-.63-.37-1.03-.38-.4-1.03-.62t-1.53-.33q-.87-.1-1.84-.16-.98-.05-2.02-.09t-2.03-.17q-.86.48-1.39 1.14-.54.65-.54 1.51 0 .57.29 1.06.28.49.9.85t1.6.56q.99.2 2.42.2 1.45 0 2.5-.23 1.05-.22 1.73-.6.68-.39 1-.93.31-.53.31-1.16m-1.03-21.78h6.2v1.93q0 .92-1.11 1.13l-1.94.36q.45 1.11.45 2.44 0 1.59-.64 2.89-.65 1.29-1.78 2.19t-2.68 1.4q-1.54.49-3.33.49-.63 0-1.21-.06-.59-.07-1.16-.17-1.01.61-1.01 1.36 0 .65.6.96.6.3 1.59.43.98.13 2.24.16t2.59.13q1.32.11 2.58.37t2.25.83q.98.57 1.58 1.54.6.98.6 2.51 0 1.43-.7 2.78-.71 1.34-2.04 2.39t-3.27 1.69q-1.95.64-4.43.64-2.43 0-4.24-.47-1.8-.47-3-1.26t-1.79-1.82q-.58-1.03-.58-2.14 0-1.51.91-2.53t2.51-1.63q-.86-.44-1.37-1.17-.5-.74-.5-1.94 0-.48.18-.99.18-.52.52-1.02.35-.51.88-.96.52-.45 1.23-.81-1.63-.88-2.57-2.35-.93-1.47-.93-3.44 0-1.6.64-2.89t1.78-2.2q1.15-.92 2.71-1.4 1.57-.48 3.41-.48 1.39 0 2.61.28t2.22.83m13.57 7.56h9.79q0-1.01-.29-1.9-.28-.89-.85-1.57-.56-.67-1.44-1.06-.87-.39-2.02-.39-2.25 0-3.54 1.29-1.29 1.28-1.65 3.63m13.23 3.13h-13.33q.12 1.66.58 2.86.47 1.21 1.22 2 .76.79 1.8 1.18 1.04.38 2.3.38t2.17-.29 1.6-.65q.68-.36 1.19-.65.52-.3 1-.3.65 0 .97.49l1.49 1.89q-.86 1-1.93 1.69-1.08.68-2.24 1.09-1.17.41-2.37.58-1.21.17-2.35.17-2.24 0-4.17-.75-1.94-.75-3.36-2.21-1.43-1.46-2.25-3.61t-.82-4.99q0-2.2.71-4.14.72-1.95 2.05-3.38 1.33-1.44 3.26-2.28 1.92-.84 4.33-.84 2.04 0 3.76.65t2.96 1.9 1.95 3.07q.7 1.81.7 4.14 0 1.18-.25 1.59-.26.41-.97.41"/></svg>